<svg width="121" height="121" viewBox="0 0 121 121" fill="none" xmlns="http://www.w3.org/2000/svg">
<path d="M60.207 6.14553C30.3807 6.14553 6.14554 30.3837 6.14554 60.207C6.14554 90.0303 30.3837 114.268 60.207 114.268C90.0303 114.268 114.268 90.0303 114.268 60.207C114.268 30.3837 90.0303 6.14553 60.207 6.14553ZM60.207 8.24183C88.8456 8.24183 112.172 31.5684 112.172 60.207C112.172 88.8456 88.8456 112.172 60.207 112.172C31.5684 112.172 8.24184 88.8456 8.24184 60.207C8.24184 31.5684 31.5684 8.24183 60.207 8.24183ZM51.6614 43.4663C51.4001 43.4663 51.1389 43.5613 50.9221 43.778L35.2414 59.4587C34.8049 59.8952 34.8049 60.498 35.2414 60.9315L50.9013 76.63C51.127 76.8557 51.3615 76.9418 51.6496 76.9418C51.9376 76.9418 52.184 76.8497 52.4038 76.63C52.8402 76.1935 52.8402 75.5908 52.4038 75.1573L38.5106 61.2641H84.4481C85.0598 61.2641 85.5081 60.8157 85.5081 60.204C85.5081 59.5924 85.0598 59.144 84.4481 59.144H38.5106L52.4038 45.2508C52.8402 44.8143 52.8402 44.2115 52.4038 43.778C52.187 43.5613 51.9227 43.4663 51.6614 43.4663Z" fill="black"/>
</svg>
