<svg width="121" height="121" viewBox="0 0 121 121" fill="none" xmlns="http://www.w3.org/2000/svg">
<path d="M60.207 114.268C90.0333 114.268 114.268 90.0303 114.268 60.207C114.268 30.3837 90.0303 6.14554 60.207 6.14554C30.3837 6.14554 6.14554 30.3837 6.14554 60.207C6.14554 90.0303 30.3837 114.268 60.207 114.268ZM60.207 112.172C31.5684 112.172 8.24185 88.8456 8.24185 60.207C8.24185 31.5684 31.5684 8.24185 60.207 8.24185C88.8456 8.24185 112.172 31.5684 112.172 60.207C112.172 88.8456 88.8456 112.172 60.207 112.172ZM68.7526 76.9477C69.0139 76.9477 69.2752 76.8527 69.4919 76.636L85.1726 60.9553C85.6091 60.5188 85.6091 59.916 85.1726 59.4825L69.5127 43.784C69.287 43.5583 69.0525 43.4722 68.7644 43.4722C68.4764 43.4722 68.23 43.5643 68.0102 43.784C67.5738 44.2205 67.5738 44.8232 68.0102 45.2567L81.9034 59.1499H35.9659C35.3542 59.1499 34.9059 59.5983 34.9059 60.21C34.9059 60.8216 35.3542 61.27 35.9659 61.27H81.9034L68.0102 75.1632C67.5738 75.5997 67.5738 76.2025 68.0102 76.636C68.227 76.8527 68.4913 76.9477 68.7526 76.9477Z" fill="black"/>
</svg>
