<svg xmlns="http://www.w3.org/2000/svg" width="304" height="57" viewBox="0 0 304 57" fill="none"><g clip-path="url(#clip0_241_3016)"><g clip-path="url(#clip1_241_3016)"><path d="M31.7308 8.44541V2.81166C31.7308 2.65463 31.6005 2.52441 31.4434 2.52441H0.302709C0.137943 2.52441 0 2.65846 0 2.82697V45.4076C0 45.5723 0.134111 45.7101 0.302709 45.7101H7.55622C7.72099 45.7101 7.85893 45.5761 7.85893 45.4076L7.87043 24.01C7.87043 23.1253 8.36089 22.3134 9.13874 21.8998L30.4625 10.5595C31.2441 10.1459 31.7308 9.33011 31.7308 8.44541Z" fill="#F6F0EB"></path><path d="M11.4726 39.7853V45.4191C11.4726 45.5761 11.6029 45.7063 11.76 45.7063H42.9006C43.0654 45.7063 43.2034 45.5723 43.2034 45.4038V2.82697C43.2034 2.66229 43.0692 2.52441 42.9006 2.52441H35.6433C35.4785 2.52441 35.3406 2.65846 35.3406 2.82697L35.3291 24.2245C35.3291 25.1092 34.8386 25.9212 34.0608 26.3348L12.7371 37.6751C11.9554 38.0887 11.4688 38.9044 11.4688 39.7892L11.4726 39.7853Z" fill="#F6F0EB"></path><path d="M78.329 2.55957H59.1357C58.971 2.55957 58.833 2.69362 58.833 2.86213V45.4389C58.833 45.6036 58.9671 45.7415 59.1357 45.7415H66.3931C66.5578 45.7415 66.6958 45.6074 66.6958 45.4389V30.0313C66.6958 29.6981 66.964 29.43 67.2974 29.43H78.3328C87.257 29.43 93.4912 23.9686 93.4912 16.1442C93.4912 7.22436 85.866 2.55957 78.3328 2.55957H78.329ZM66.6919 10.0508C66.6919 9.88613 66.8261 9.74826 66.9946 9.74826H76.7656C81.8082 9.74826 85.3296 12.3794 85.3296 16.1442C85.3296 19.9089 81.9692 22.2375 76.7656 22.2375H66.9946C66.8299 22.2375 66.6919 22.1035 66.6919 21.9349V10.0508Z" fill="#F6F0EB"></path><path d="M120.336 14.5238C120.336 14.7919 120.007 14.9298 119.823 14.7383C117.221 12.0076 113.776 10.625 109.542 10.625C105.308 10.625 101.304 12.2872 98.4684 15.3051C95.3992 18.5682 93.7783 23.1908 93.7783 28.6637C93.7783 41.1262 101.695 46.7025 109.538 46.7025C113.861 46.7025 117.681 44.8641 120.467 41.4862C120.643 41.2717 120.995 41.4019 120.995 41.6815V45.4386C120.995 45.6033 121.129 45.7412 121.298 45.7412H127.712C127.877 45.7412 128.015 45.6071 128.015 45.4386V11.885C128.015 11.7203 127.881 11.5825 127.712 11.5825H120.639C120.474 11.5825 120.336 11.7165 120.336 11.885V14.52V14.5238ZM120.578 28.725C120.578 34.1137 117.301 39.8738 111.224 39.9351C108.722 39.9581 106.5 39.1078 104.844 37.4686C102.817 35.4618 101.699 32.3366 101.699 28.6637C101.699 24.9909 102.833 21.9117 104.89 19.8742C106.53 18.2503 108.684 17.3924 111.117 17.3924C111.151 17.3924 111.186 17.3924 111.22 17.3924C116.727 17.446 120.574 22.1032 120.574 28.7212L120.578 28.725Z" fill="#F6F0EB"></path><path d="M190.691 13.5547C190.691 13.9645 190.691 14.3513 190.695 14.7267C190.695 15.0024 190.361 15.1403 190.177 14.9335C187.664 12.1338 184.096 10.6172 179.901 10.6172C175.705 10.6172 171.666 12.2487 168.831 15.2092C165.761 18.4187 164.137 22.9647 164.137 28.3534C164.137 33.742 165.758 38.6404 168.823 41.9533C171.655 45.0133 175.586 46.6947 179.897 46.6947C183.947 46.6947 187.583 45.1168 190.177 42.298C190.361 42.0988 190.695 42.2367 190.695 42.5086C190.695 42.8533 190.695 43.2056 190.695 43.5771V45.427C190.695 45.5917 190.829 45.7295 190.997 45.7295H198.071C198.236 45.7295 198.373 45.5955 198.373 45.427V1.02717C198.373 0.862485 198.239 0.724609 198.071 0.724609H190.997C190.833 0.724609 190.695 0.858655 190.695 1.02717V13.5547H190.691ZM190.691 28.2997C190.691 35.2012 187.028 39.8775 181.579 39.9311C181.544 39.9311 181.51 39.9311 181.475 39.9311C179.054 39.9311 176.919 39.0847 175.299 37.48C173.206 35.4118 172.057 32.1718 172.057 28.361C172.057 24.8375 173.145 21.8234 175.119 19.8664C176.759 18.2463 178.95 17.3922 181.468 17.3922C181.506 17.3922 181.541 17.3922 181.579 17.3922C187.028 17.4459 190.691 21.8311 190.691 28.2997Z" fill="#F6F0EB"></path><path d="M218.525 10.6211C208.271 10.6211 201.378 17.8711 201.378 28.6598C201.378 39.4486 208.267 46.6986 218.525 46.6986C228.783 46.6986 235.672 39.4486 235.672 28.6598C235.672 17.8711 228.783 10.6211 218.525 10.6211ZM227.752 28.6598C227.752 35.6532 224.3 39.8661 218.517 39.9312C216.05 39.9541 213.919 39.1422 212.333 37.5758C210.344 35.6111 209.294 32.528 209.294 28.6598C209.294 24.7917 210.34 21.6933 212.318 19.7362C213.873 18.2004 215.973 17.3885 218.395 17.3885C218.437 17.3885 218.475 17.3885 218.517 17.3885C224.3 17.4536 227.752 21.6665 227.752 28.656V28.6598Z" fill="#F6F0EB"></path><path d="M290.8 26.4959L303.379 12.084C303.548 11.8887 303.41 11.5861 303.153 11.5861H293.88C293.788 11.5861 293.704 11.6283 293.647 11.6972L282.523 25.3278C282.343 25.5461 281.99 25.4197 281.99 25.1363V1.02717C281.99 0.862485 281.856 0.724609 281.688 0.724609H274.614C274.449 0.724609 274.312 0.858655 274.312 1.02717V45.4385C274.312 45.6031 274.446 45.741 274.614 45.741H281.688C281.852 45.741 281.99 45.607 281.99 45.4385V36.7944C281.99 36.6489 282.044 36.511 282.136 36.3999L285.209 32.8611C285.335 32.7156 285.565 32.7233 285.68 32.8803L294.892 45.6108C294.949 45.6874 295.037 45.7372 295.137 45.7372H303.705C303.95 45.7372 304.092 45.4576 303.95 45.2585L290.78 27.055C290.658 26.8865 290.669 26.6529 290.807 26.492L290.8 26.4959Z" fill="#F6F0EB"></path><path d="M255.221 39.9312C249.788 39.9312 245.995 35.2741 245.995 28.6025C245.995 21.9308 249.616 17.3924 255.221 17.3924C260.272 17.3924 262.87 20.8699 263.272 24.4317C263.287 24.5849 263.414 24.6998 263.567 24.6998H270.886C271.066 24.6998 271.207 24.539 271.188 24.3628C270.23 16.0022 264 10.625 255.225 10.625C244.811 10.625 238.078 17.6835 238.078 28.6063C238.078 39.5291 244.968 46.7063 255.225 46.7063C264.877 46.7063 270.15 40.2108 271.173 33.6579C271.2 33.4741 271.058 33.3094 270.87 33.3094H263.532C263.391 33.3094 263.272 33.409 263.241 33.5468C262.674 36.2507 260.187 39.9351 255.225 39.9351L255.221 39.9312Z" fill="#F6F0EB"></path><path d="M165.643 11.5859H158.255C158.133 11.5859 158.022 11.6587 157.979 11.7736L147.894 37.0317C147.871 37.0968 147.814 37.1044 147.791 37.1044C147.768 37.1044 147.714 37.0968 147.687 37.0355L138.767 11.7851C138.725 11.6664 138.614 11.5859 138.483 11.5859H130.368C130.157 11.5859 130.011 11.7966 130.088 11.9919L143.633 46.614V46.84L139.675 56.1543C139.591 56.3496 139.736 56.5679 139.951 56.5679H147.469C147.607 56.5679 147.733 56.4836 147.787 56.3572L165.915 11.9957C165.995 11.8004 165.85 11.5859 165.639 11.5859H165.643Z" fill="#F6F0EB"></path></g></g><defs><clipPath id="clip0_241_3016"><rect width="304" height="55.8435" fill="white" transform="translate(0 0.724609)"></rect></clipPath><clipPath id="clip1_241_3016"><rect width="304" height="55.8435" fill="white" transform="translate(0 0.724609)"></rect></clipPath></defs></svg>