<svg xmlns="http://www.w3.org/2000/svg" width="60" height="61" viewBox="0 0 60 61" fill="none"><path d="M29.9473 44.234C35.7873 44.234 39.9473 41.074 39.9473 36.154C39.9473 32.474 37.6673 29.114 32.2673 28.554V28.474C36.3873 28.074 38.7473 25.474 38.7473 22.274C38.7473 18.314 35.3073 15.434 30.1073 15.434C24.8273 15.434 21.3473 18.394 21.2673 23.314H23.3873C23.4273 19.314 26.2273 17.194 30.1073 17.194C33.7073 17.194 36.6273 19.074 36.6273 22.514C36.6273 26.034 33.5073 27.994 29.2273 27.994H26.5073V29.714H29.8273C34.3873 29.714 37.8273 31.834 37.8273 35.954C37.8273 39.994 34.5873 42.474 29.9473 42.474C25.3873 42.474 22.2273 39.594 22.1873 35.154H20.0673C20.1073 40.954 24.1873 44.234 29.9473 44.234Z" fill="black"/><circle cx="30" cy="30.834" r="29.1752" transform="rotate(90 30 30.834)" stroke="black" stroke-width="1.64964"/></svg>