<svg xmlns="http://www.w3.org/2000/svg" width="60" height="61" viewBox="0 0 60 61" fill="none"><path d="M20.4448 42.554V43.834H39.5248V41.954H22.6048C22.6048 38.714 23.6448 36.514 29.5648 33.634L30.6848 33.074C36.6848 30.154 38.8848 26.914 38.8848 23.314C38.8848 18.674 35.2848 15.434 30.2848 15.434C25.1248 15.434 21.4448 18.874 21.2848 24.354H23.3648C23.5648 19.714 26.2448 17.194 30.2848 17.194C34.5648 17.194 36.7248 19.954 36.7248 23.394C36.7248 26.394 35.0848 28.754 29.9248 31.274L28.8048 31.834C22.1248 35.114 20.4448 38.114 20.4448 42.554Z" fill="black"/><circle cx="30" cy="30.834" r="29.1752" transform="rotate(90 30 30.834)" stroke="black" stroke-width="1.64964"/></svg>